<?xml version="1.0" encoding="UTF-8"?> <svg xmlns="http://www.w3.org/2000/svg" width="200" height="39" viewBox="0 0 200 39" fill="none"> <path d="M49.1307 15.1711C49.122 14.2891 49.2995 13.4148 49.652 12.6026C50.0023 11.8105 50.536 11.1084 51.2113 10.5513C51.9678 9.93947 52.8415 9.48058 53.7816 9.20128C54.9346 8.85902 56.1355 8.69486 57.3406 8.71475C57.9568 8.71131 58.5725 8.75087 59.1829 8.8331C59.6848 8.90134 60.1805 9.00685 60.6658 9.14868C61.053 9.25757 61.4279 9.40442 61.7847 9.587C62.0493 9.72269 62.2941 9.89221 62.5127 10.091C62.7206 10.2799 62.8846 10.5101 62.9935 10.7661C63.0789 11.0085 63.1199 11.2637 63.1149 11.5199C63.1274 11.7288 63.0938 11.9379 63.0163 12.133C62.9388 12.3282 62.8191 12.5047 62.6655 12.6508C62.3571 12.9218 61.9525 13.0649 61.5376 13.0496C61.2713 13.0506 61.0074 13.0015 60.7602 12.905L59.9109 12.585C59.5355 12.4527 59.1511 12.3458 58.7605 12.2651C58.2176 12.1602 57.6648 12.1118 57.1114 12.1204C56.5884 12.1111 56.0666 12.1731 55.5611 12.3045C55.167 12.407 54.7975 12.5843 54.4736 12.8261C54.1956 13.0355 53.9761 13.3098 53.8355 13.6238C53.6983 13.9429 53.6294 14.286 53.6333 14.6319C53.6214 15.1079 53.7803 15.573 54.0827 15.9469C54.4079 16.3253 54.8084 16.6355 55.26 16.8586C55.7951 17.1316 56.3528 17.3603 56.9271 17.5423C57.5473 17.744 58.1779 17.9616 58.819 18.1954C59.4658 18.4315 60.0975 18.7052 60.7108 19.015C61.3243 19.3219 61.8864 19.718 62.3779 20.1897C62.8835 20.6838 63.2836 21.2708 63.5552 21.9167C63.8718 22.7004 64.0246 23.5379 64.0046 24.38C64.0143 25.3157 63.8277 26.2435 63.4564 27.1063C63.0933 27.9362 62.538 28.6728 61.8342 29.2584C61.0421 29.9022 60.1251 30.3837 59.138 30.6741C57.9219 31.0326 56.656 31.2042 55.3858 31.1826C54.6958 31.1869 54.0064 31.1415 53.3233 31.0467C52.7749 30.9704 52.2328 30.8561 51.7011 30.7048C51.2923 30.5905 50.8963 30.4363 50.5193 30.2446C50.2543 30.1148 50.0093 29.9496 49.7913 29.7537C49.5865 29.5636 49.4203 29.3376 49.3015 29.0874C49.1975 28.8355 49.1471 28.5656 49.1532 28.2941C49.1406 28.0819 49.1741 27.8695 49.2515 27.6709C49.329 27.4722 49.4486 27.2917 49.6025 27.1413C49.9079 26.8677 50.3116 26.7228 50.726 26.7381C50.9921 26.7369 51.2555 26.7907 51.4989 26.8959C51.7445 27.0011 52.0441 27.115 52.3976 27.2378C52.8163 27.379 53.2441 27.4932 53.6783 27.5796C54.3151 27.6968 54.9626 27.7497 55.6105 27.7374C56.1919 27.7483 56.7717 27.676 57.3316 27.5227C57.7666 27.4043 58.1741 27.2049 58.5314 26.9353C58.8364 26.7026 59.0798 26.402 59.2414 26.0587C59.4019 25.6978 59.483 25.3081 59.4795 24.9147C59.4973 24.4042 59.3391 23.9027 59.0302 23.4902C58.7118 23.093 58.3163 22.7609 57.8663 22.5128C57.3402 22.2181 56.7864 21.973 56.2127 21.7808C55.5925 21.5675 54.9589 21.3425 54.3119 21.1058C53.6648 20.8691 53.0252 20.6032 52.3931 20.3081C51.7845 20.0181 51.2264 19.6364 50.7394 19.1772C50.2452 18.7054 49.8498 18.1441 49.5756 17.5248C49.2611 16.7789 49.1096 15.9773 49.1307 15.1711V15.1711Z" fill="#F15A24"></path> <path d="M67.9231 9.26707C67.9068 9.00841 67.9469 8.74932 68.0406 8.50683C68.1343 8.26433 68.2795 8.04393 68.4668 7.8601C68.9599 7.53335 69.5423 7.35864 70.1384 7.35864C70.7346 7.35864 71.317 7.53335 71.8101 7.8601C71.9981 8.04355 72.1442 8.26378 72.2387 8.50629C72.3332 8.7488 72.374 9.00809 72.3583 9.26707V25.6248C72.3524 25.9713 72.3795 26.3176 72.4392 26.6592C72.4766 26.8894 72.5573 27.1108 72.6773 27.3123C72.7652 27.4553 72.893 27.5708 73.0458 27.6454C73.194 27.7108 73.355 27.7437 73.5176 27.7419C73.6543 27.7435 73.7909 27.7362 73.9265 27.7199C74.0457 27.7047 74.1658 27.6974 74.286 27.698C74.4264 27.6973 74.5654 27.7242 74.695 27.7769C74.8255 27.83 74.9421 27.9109 75.0365 28.0136C75.1401 28.128 75.2209 28.2603 75.2746 28.4037C75.3371 28.5738 75.3675 28.7534 75.3645 28.9341C75.372 29.2006 75.3246 29.4659 75.2252 29.7143C75.1357 29.922 75.0061 30.111 74.8432 30.2709C74.7243 30.385 74.5932 30.4863 74.4523 30.5733C74.2806 30.6786 74.0984 30.7667 73.9086 30.8363C73.6625 30.9236 73.4081 30.9868 73.1492 31.0248C72.8147 31.0752 72.4765 31.0987 72.1381 31.0949C70.7571 31.0949 69.7086 30.737 68.9926 30.0211C68.2766 29.3052 67.9201 28.2313 67.9231 26.7995V9.26707Z" fill="#F15A24"></path> <path d="M81.3051 23.7311V23.7618C81.3534 24.3666 81.5053 24.9592 81.7545 25.5151C81.978 26.0038 82.3023 26.4424 82.7071 26.8037C83.1198 27.1624 83.6051 27.4327 84.1316 27.597C84.7311 27.7846 85.3578 27.8763 85.9874 27.8688C86.4766 27.8754 86.9655 27.8387 87.4479 27.7592C87.8087 27.6965 88.1657 27.6146 88.5173 27.5137L89.3217 27.2683C89.5347 27.1984 89.7576 27.1614 89.9823 27.1587C90.2506 27.1535 90.5138 27.2307 90.7347 27.3794C90.9557 27.528 91.1232 27.7406 91.2135 27.9871C91.2738 28.1501 91.3042 28.3222 91.3034 28.4956C91.3084 28.7326 91.2641 28.9682 91.1731 29.1881C91.0706 29.405 90.9273 29.6012 90.7507 29.7667C90.5341 29.9628 90.2925 30.1308 90.0317 30.2663C89.6616 30.4642 89.2716 30.6243 88.8678 30.7441C88.3399 30.9024 87.8007 31.0226 87.2546 31.1035C86.578 31.2037 85.8944 31.2521 85.21 31.2481C84.0238 31.2655 82.8436 31.0801 81.723 30.7003C80.7423 30.3662 79.8471 29.8295 79.0987 29.1267C78.3713 28.4269 77.8099 27.5801 77.4541 26.6459C77.0602 25.6007 76.8668 24.4939 76.8834 23.3805C76.8626 22.0976 77.0694 20.8208 77.4945 19.6066C77.8602 18.5681 78.4397 17.6134 79.1976 16.8014C79.9262 16.0361 80.8193 15.4374 81.8129 15.0482C82.8779 14.6362 84.015 14.4308 85.1606 14.4433C86.1279 14.4306 87.0892 14.5926 87.9961 14.9211C88.8123 15.2202 89.5516 15.69 90.162 16.2974C90.777 16.9242 91.2487 17.6712 91.546 18.4889C91.886 19.4273 92.0518 20.4173 92.0358 21.4125C92.0864 22.0455 91.8853 22.6733 91.4741 23.1657C91.2622 23.3647 91.0101 23.5185 90.7339 23.6174C90.4577 23.7162 90.1635 23.7579 89.8699 23.7399L81.3051 23.7311ZM87.9242 20.9654C87.8774 20.0116 87.5342 19.0944 86.9401 18.3355C86.6596 18.0477 86.318 17.8233 85.9392 17.6779C85.5604 17.5325 85.1535 17.4697 84.7472 17.494C84.3635 17.4923 83.9828 17.5592 83.6238 17.6912C83.2561 17.8299 82.9213 18.0402 82.6397 18.3092C82.3196 18.6203 82.058 18.9838 81.8668 19.3831C81.6284 19.8836 81.4592 20.4127 81.3635 20.9566L87.9242 20.9654Z" fill="#F15A24"></path> <path d="M99.2659 23.7311V23.7618C99.3143 24.3666 99.4661 24.9592 99.7153 25.5151C99.9388 26.0038 100.263 26.4424 100.668 26.8037C101.081 27.1624 101.566 27.4327 102.092 27.597C102.692 27.7846 103.319 27.8763 103.948 27.8688C104.437 27.8754 104.926 27.8387 105.409 27.7592C105.77 27.6965 106.127 27.6146 106.478 27.5137L107.283 27.2683C107.495 27.1984 107.718 27.1614 107.943 27.1587C108.211 27.1535 108.475 27.2307 108.696 27.3794C108.917 27.528 109.084 27.7406 109.174 27.9871C109.235 28.1501 109.265 28.3222 109.264 28.4956C109.269 28.7326 109.225 28.9682 109.134 29.1881C109.031 29.405 108.888 29.6012 108.711 29.7667C108.495 29.9628 108.253 30.1308 107.993 30.2663C107.622 30.4642 107.232 30.6243 106.829 30.7441C106.301 30.9024 105.762 31.0226 105.215 31.1035C104.539 31.2037 103.855 31.2521 103.171 31.2481C101.985 31.2655 100.804 31.0801 99.6838 30.7003C98.7031 30.3662 97.8079 29.8295 97.0595 29.1267C96.3321 28.4269 95.7707 27.5801 95.4149 26.6459C95.021 25.6007 94.8276 24.4939 94.8442 23.3805C94.8234 22.0976 95.0302 20.8208 95.4553 19.6066C95.821 18.5681 96.4005 17.6134 97.1584 16.8014C97.887 16.0361 98.7801 15.4374 99.7737 15.0482C100.839 14.6362 101.976 14.4308 103.121 14.4433C104.089 14.4306 105.05 14.5926 105.957 14.9211C106.768 15.2162 107.504 15.6798 108.114 16.2798C108.729 16.9067 109.201 17.6537 109.498 18.4714C109.838 19.4098 110.004 20.3998 109.988 21.3949C110.038 22.028 109.837 22.6558 109.426 23.1482C109.214 23.3472 108.962 23.501 108.686 23.5998C108.41 23.6987 108.115 23.7404 107.822 23.7224L99.2659 23.7311ZM105.867 20.9741C105.82 20.0204 105.477 19.1031 104.883 18.3443C104.602 18.0565 104.261 17.832 103.882 17.6867C103.503 17.5413 103.096 17.4785 102.69 17.5027C102.306 17.5011 101.926 17.5679 101.567 17.7C101.199 17.8387 100.864 18.0489 100.583 18.318C100.262 18.6291 100.001 18.9925 99.8096 19.3919C99.5712 19.8923 99.402 20.4215 99.3064 20.9654L105.867 20.9741Z" fill="#F15A24"></path> <path d="M113.839 16.3986C113.808 16.1554 113.835 15.9087 113.917 15.6771C113.999 15.4456 114.133 15.2352 114.311 15.062C114.488 14.8888 114.704 14.7573 114.942 14.6775C115.179 14.5977 115.432 14.5717 115.681 14.6015C115.943 14.5981 116.203 14.6336 116.454 14.7067C116.666 14.7698 116.863 14.8726 117.034 15.0091C117.198 15.1429 117.331 15.3086 117.425 15.4957C117.526 15.6955 117.593 15.9102 117.622 16.1312L117.753 16.9421H117.816C118.139 16.4669 118.542 16.0477 119.006 15.7017C119.229 15.5324 119.463 15.3786 119.707 15.2414C119.986 15.0845 120.277 14.951 120.579 14.8426C120.924 14.7206 121.279 14.6282 121.64 14.5664C122.051 14.4949 122.467 14.4597 122.884 14.4613C123.828 14.4525 124.763 14.6238 125.639 14.9653C126.463 15.2942 127.197 15.806 127.782 16.4599C128.414 17.1848 128.886 18.0295 129.167 18.9408C129.522 20.0664 129.696 21.2389 129.683 22.4166C129.703 23.6858 129.493 24.9486 129.063 26.1466C128.684 27.1934 128.07 28.1443 127.266 28.9299C126.442 29.7176 125.449 30.3165 124.358 30.6831C123.088 31.0992 121.753 31.3008 120.413 31.2792C120.125 31.2804 119.837 31.2672 119.55 31.2398C119.29 31.2135 119.066 31.1843 118.881 31.1521L118.278 31.025H118.229C118.25 31.2997 118.264 31.5773 118.27 31.8578C118.275 32.1383 118.275 32.4305 118.27 32.7344V36.631C118.286 36.8897 118.246 37.1488 118.152 37.3913C118.058 37.6337 117.913 37.8541 117.726 38.038C117.233 38.3647 116.65 38.5394 116.054 38.5394C115.458 38.5394 114.876 38.3647 114.383 38.038C114.195 37.8541 114.05 37.6337 113.956 37.3913C113.863 37.1488 113.823 36.8897 113.839 36.631V16.3986ZM118.274 27.4484C118.482 27.5532 118.701 27.6383 118.926 27.7026C119.185 27.7759 119.45 27.8344 119.716 27.8779C120.074 27.9344 120.437 27.9608 120.799 27.9568C121.415 27.9666 122.026 27.8563 122.597 27.6325C123.13 27.4193 123.604 27.0841 123.976 26.6551C124.387 26.1735 124.692 25.6158 124.875 25.0158C125.101 24.2675 125.208 23.4901 125.194 22.7103C125.209 21.964 125.127 21.2188 124.951 20.4924C124.824 19.9588 124.592 19.4543 124.268 19.0065C123.994 18.6411 123.625 18.3536 123.199 18.1737C122.758 17.9944 122.284 17.9049 121.806 17.9108C121.528 17.9094 121.252 17.9448 120.984 18.0159C120.736 18.0817 120.495 18.1698 120.265 18.2789C120.048 18.381 119.843 18.5059 119.654 18.6515C119.482 18.7882 119.318 18.9346 119.164 19.0898C118.811 19.4244 118.51 19.8067 118.27 20.225L118.274 27.4484Z" fill="#F15A24"></path> <path d="M132.271 11.9933C132.185 11.6339 132.128 11.3826 132.101 11.2394C132.075 11.1109 132.062 10.9803 132.06 10.8493C132.055 10.5508 132.135 10.2566 132.289 9.99901C132.438 9.7546 132.635 9.54151 132.869 9.37222C133.108 9.20059 133.375 9.07149 133.66 8.99089C133.952 8.9056 134.254 8.86276 134.559 8.86377C134.849 8.85957 135.137 8.90864 135.408 9.00842C135.639 9.09263 135.85 9.22244 136.028 9.38975C136.235 9.58013 136.39 9.81829 136.477 10.0823C136.558 10.3423 136.642 10.6345 136.729 10.9589L139.798 23.4858C139.897 23.9212 139.981 24.3259 140.05 24.6999L140.239 25.7081C140.293 26.0587 140.336 26.3772 140.369 26.6636H140.432L140.58 25.7256C140.634 25.4334 140.697 25.0973 140.769 24.7175C140.841 24.3376 140.935 23.9212 141.052 23.4683L144.063 11.3096C144.185 10.5686 144.575 9.89509 145.164 9.41166C145.782 9.05323 146.489 8.86407 147.208 8.86407C147.928 8.86407 148.634 9.05323 149.253 9.41166C149.843 9.90074 150.234 10.5805 150.354 11.3271L153.342 23.4551C153.441 23.8788 153.531 24.2836 153.612 24.6693C153.693 25.055 153.76 25.4027 153.814 25.7124C153.88 26.0631 153.94 26.3977 153.994 26.7162H154.061C154.115 26.3889 154.169 26.0499 154.223 25.6993C154.277 25.3486 154.34 25.0038 154.412 24.6649C154.483 24.2821 154.567 23.8905 154.663 23.4902L157.544 10.994C157.63 10.6433 157.711 10.3365 157.786 10.0735C157.855 9.82203 157.99 9.59238 158.177 9.40729C158.364 9.22669 158.59 9.08893 158.838 9.00404C159.108 8.91113 159.392 8.86514 159.678 8.86816C159.963 8.86822 160.245 8.90807 160.518 8.9865C160.788 9.06289 161.042 9.18452 161.269 9.34592C161.488 9.50165 161.672 9.69834 161.813 9.92449C161.956 10.1619 162.029 10.4335 162.024 10.7091C162.024 10.7617 162.024 10.8172 162.024 10.8756C162.024 10.9326 162.024 11.0071 161.992 11.0904C161.961 11.1737 161.956 11.2789 161.929 11.4016C161.902 11.5243 161.866 11.669 161.822 11.8399L157.544 28.1933C157.439 28.5935 157.305 28.986 157.144 29.3679C157.012 29.6946 156.815 29.9925 156.564 30.2446C156.266 30.5294 155.902 30.74 155.503 30.8582C155.006 31 154.489 31.0666 153.971 31.0554C153.469 31.0677 152.969 31.0011 152.488 30.8582C152.101 30.7348 151.748 30.5246 151.459 30.2446C151.212 29.9953 151.023 29.696 150.907 29.3679C150.762 28.9828 150.637 28.5908 150.534 28.1933L147.613 16.5079C147.526 16.1485 147.446 15.7862 147.375 15.4209C147.303 15.0557 147.24 14.724 147.186 14.4259C147.132 14.0753 147.078 13.7466 147.024 13.4397H146.961C146.919 13.7582 146.87 14.0914 146.813 14.4391C146.759 14.7313 146.696 15.06 146.624 15.4253C146.552 15.7905 146.474 16.1558 146.39 16.5211L143.479 28.1889C143.375 28.5863 143.25 28.9784 143.106 29.3636C142.989 29.6917 142.801 29.9909 142.553 30.2402C142.264 30.5201 141.911 30.7303 141.524 30.8538C141.038 30.9974 140.531 31.064 140.023 31.0511C139.511 31.0614 139 30.9948 138.509 30.8538C138.11 30.7356 137.746 30.5251 137.448 30.2402C137.197 29.9883 137 29.6903 136.868 29.3636C136.707 28.9818 136.573 28.5893 136.469 28.1889L132.271 11.9933Z" fill="#F15A24"></path> <path d="M168.063 23.7311V23.7618C168.111 24.3666 168.263 24.9592 168.513 25.5151C168.736 26.0038 169.06 26.4424 169.465 26.8037C169.878 27.1624 170.363 27.4327 170.89 27.597C171.489 27.7846 172.116 27.8763 172.745 27.8688C173.235 27.8754 173.724 27.8387 174.206 27.7592C174.567 27.6965 174.924 27.6146 175.275 27.5137L176.08 27.2683C176.293 27.1984 176.516 27.1614 176.74 27.1587C177.009 27.1535 177.272 27.2307 177.493 27.3794C177.714 27.528 177.881 27.7406 177.972 27.9871C178.032 28.1501 178.062 28.3222 178.061 28.4956C178.066 28.7326 178.022 28.9682 177.931 29.1881C177.829 29.405 177.685 29.6012 177.509 29.7667C177.292 29.9628 177.051 30.1308 176.79 30.2663C176.42 30.4642 176.03 30.6243 175.626 30.7441C175.098 30.9024 174.559 31.0226 174.013 31.1035C173.336 31.2037 172.652 31.2521 171.968 31.2481C170.782 31.2655 169.602 31.0801 168.481 30.7003C167.5 30.3662 166.605 29.8295 165.857 29.1267C165.129 28.4269 164.568 27.5801 164.212 26.6459C163.818 25.6007 163.625 24.4939 163.641 23.3805C163.621 22.0976 163.827 20.8208 164.253 19.6066C164.618 18.568 165.198 17.6134 165.956 16.8014C166.684 16.0361 167.577 15.4374 168.571 15.0482C169.636 14.6362 170.773 14.4308 171.919 14.4433C172.886 14.4306 173.847 14.5926 174.754 14.9211C175.57 15.2202 176.31 15.69 176.92 16.2974C177.535 16.9242 178.007 17.6712 178.304 18.4889C178.644 19.4274 178.81 20.4173 178.794 21.4125C178.844 22.0455 178.643 22.6733 178.232 23.1657C178.02 23.3647 177.768 23.5185 177.492 23.6174C177.216 23.7162 176.922 23.7579 176.628 23.7399L168.063 23.7311ZM174.682 20.9654C174.636 20.0116 174.292 19.0944 173.698 18.3355C173.418 18.0477 173.076 17.8233 172.697 17.6779C172.318 17.5325 171.912 17.4697 171.505 17.494C171.122 17.4923 170.741 17.5592 170.382 17.6912C170.014 17.8299 169.679 18.0402 169.398 18.3092C169.078 18.6203 168.816 18.9838 168.625 19.3831C168.386 19.8836 168.217 20.4127 168.122 20.9566L174.682 20.9654Z" fill="#F15A24"></path> <path d="M182.569 9.26707C182.552 9.00841 182.592 8.74932 182.686 8.50683C182.78 8.26433 182.925 8.04393 183.112 7.8601C183.605 7.53335 184.188 7.35864 184.784 7.35864C185.38 7.35864 185.962 7.53335 186.456 7.8601C186.644 8.04355 186.79 8.26378 186.884 8.50629C186.979 8.7488 187.019 9.00809 187.004 9.26707V25.6248C186.998 25.9713 187.025 26.3176 187.085 26.6592C187.122 26.8894 187.203 27.1108 187.323 27.3123C187.411 27.4553 187.539 27.5708 187.691 27.6454C187.84 27.7108 188.001 27.7437 188.163 27.7419C188.3 27.7435 188.436 27.7362 188.572 27.7199C188.691 27.7047 188.811 27.6974 188.932 27.698C189.072 27.6973 189.211 27.7242 189.34 27.7769C189.471 27.83 189.588 27.9109 189.682 28.0136C189.786 28.128 189.866 28.2603 189.92 28.4037C189.983 28.5738 190.013 28.7534 190.01 28.9341C190.018 29.2006 189.97 29.4659 189.871 29.7143C189.781 29.922 189.652 30.111 189.489 30.2709C189.37 30.385 189.239 30.4863 189.098 30.5733C188.926 30.6786 188.744 30.7667 188.554 30.8363C188.308 30.9236 188.054 30.9868 187.795 31.0248C187.46 31.0752 187.122 31.0987 186.784 31.0949C185.403 31.0949 184.354 30.737 183.638 30.0211C182.922 29.3052 182.566 28.2313 182.569 26.7995V9.26707Z" fill="#F15A24"></path> <path d="M192.558 9.26707C192.542 9.00841 192.582 8.74932 192.675 8.50683C192.769 8.26433 192.914 8.04393 193.102 7.8601C193.595 7.53335 194.177 7.35864 194.773 7.35864C195.369 7.35864 195.952 7.53335 196.445 7.8601C196.633 8.04355 196.779 8.26378 196.873 8.50629C196.968 8.7488 197.009 9.00809 196.993 9.26707V25.6248C196.987 25.9713 197.014 26.3176 197.074 26.6592C197.111 26.8894 197.192 27.1108 197.312 27.3123C197.4 27.4553 197.528 27.5708 197.681 27.6454C197.829 27.7108 197.99 27.7437 198.152 27.7419C198.289 27.7435 198.426 27.7362 198.561 27.7199C198.681 27.7047 198.801 27.6974 198.921 27.698C199.061 27.6973 199.2 27.7242 199.33 27.7769C199.46 27.8301 199.577 27.911 199.671 28.0136C199.775 28.128 199.856 28.2603 199.909 28.4037C199.972 28.5738 200.002 28.7534 199.999 28.9341C200.007 29.2006 199.959 29.4659 199.86 29.7143C199.77 29.922 199.641 30.111 199.478 30.2709C199.359 30.385 199.228 30.4863 199.087 30.5733C198.915 30.6786 198.733 30.7667 198.543 30.8363C198.297 30.9236 198.043 30.9868 197.784 31.0248C197.449 31.0752 197.111 31.0987 196.773 31.0949C195.392 31.0949 194.343 30.737 193.627 30.0211C192.911 29.3052 192.555 28.2313 192.558 26.7995V9.26707Z" fill="#F15A24"></path> <path d="M33.5204 27.6539C37.3984 21.2634 37.987 12.9135 33.2867 6.74212C31.039 3.82238 27.881 1.69251 24.2868 0.672221C20.6926 -0.348072 16.856 -0.203745 13.3531 1.08354C5.92963 3.82298 0.649629 11.248 0.0519782 18.9096C-0.536685 26.4047 3.91648 33.8122 11.286 36.3675C19.6576 39.2428 27.7821 35.412 32.734 28.7848C32.9494 28.5201 33.149 28.2435 33.3317 27.9564C33.3991 27.8599 33.4575 27.7591 33.5204 27.6539ZM15.9953 31.0377C13.1657 30.3567 10.5949 28.9005 8.58605 26.8409C6.57722 24.7813 5.21425 22.2042 4.65793 19.4137C3.66035 14.0707 6.16329 9.1616 11.3489 7.02265C14.0033 5.96037 16.9107 5.64859 19.7382 6.12299C22.5658 6.59739 25.1993 7.8388 27.3372 9.7051C32.0465 13.7814 33.8709 20.9478 30.4827 26.3171C27.4585 30.7703 21.0506 32.2167 15.9953 31.0377Z" fill="#F15A24"></path> </svg> 